<svg width="146" height="183" xmlns="http://www.w3.org/2000/svg" xmlns:xlink="http://www.w3.org/1999/xlink" overflow="hidden"><defs><clipPath id="clip0"><rect x="-192" y="376" width="146" height="183"/></clipPath></defs><g clip-path="url(#clip0)" transform="translate(192 -376)"><path d="M-123.5 527.167C-123.5 526.246-122.754 525.5-121.833 525.5L-115.167 525.5C-114.246 525.5-113.5 526.246-113.5 527.167L-113.5 556.833C-113.5 557.754-114.246 558.5-115.167 558.5L-121.833 558.5C-122.754 558.5-123.5 557.754-123.5 556.833Z" fill="#C66600" fill-rule="evenodd"/><path d="M-123.667 527.154-123.127 525.873-121.846 525.333-115.091 525.333-113.806 525.875-113.333 527.158-113.333 556.905-113.808 558.192-115.095 558.667-121.842 558.667-123.126 558.194-123.667 556.909ZM-123.467 556.868-122.975 558.036-121.807 558.467-115.131 558.467-113.964 558.037-113.533 556.869-113.533 527.193-113.964 526.025-115.132 525.533-121.806 525.533-122.975 526.026-123.467 527.194ZM-123.4 527.208-122.924 526.076-121.792 525.6-115.145 525.6-114.016 526.075-113.6 527.205-113.6 556.857-114.015 557.985-115.143 558.4-121.795 558.4-122.925 557.984-123.4 556.855ZM-123.333 556.841-122.875 557.931-121.783 558.333-115.155 558.333-114.067 557.933-113.667 556.845-113.667 527.217-114.069 526.126-115.159 525.667-121.779 525.667-122.873 526.127-123.333 527.221Z" fill="#000000" fill-opacity="0.658824"/><path d="M-86.0001 508.5C-86.8285 508.5-87.5001 507.828-87.5001 507L-87.5001 501C-87.5001 500.172-86.8285 499.5-86.0001 499.5L-47.0001 499.5C-46.1717 499.5-45.5001 500.172-45.5001 501L-45.5001 507C-45.5001 507.828-46.1717 508.5-47.0001 508.5Z" fill="#C66600" fill-rule="evenodd"/><path d="M-86.0331 508.667-87.1903 508.19-87.6668 507.033-87.6668 500.967-87.1903 499.81-86.0331 499.333-46.9671 499.333-45.8099 499.81-45.3334 500.967-45.3334 507.033-45.8099 508.19-46.9671 508.667ZM-47.0067 508.467-45.9631 508.037-45.5334 506.993-45.5334 501.007-45.9631 499.963-47.0067 499.533-85.9935 499.533-87.0371 499.963-87.4668 501.007-87.4668 506.993-87.0371 508.037-85.9935 508.467ZM-85.9803 508.4-86.986 507.986-87.4001 506.98-87.4001 501.02-86.986 500.014-85.9803 499.6-47.0199 499.6-46.0142 500.014-45.6001 501.02-45.6001 506.98-46.0142 507.986-47.0199 508.4ZM-47.0331 508.333-46.0653 507.935-45.6668 506.967-45.6668 501.033-46.0653 500.065-47.0331 499.667-85.9671 499.667-86.9349 500.065-87.3334 501.033-87.3334 506.967-86.9349 507.935-85.9671 508.333Z" fill="#000000" fill-opacity="0.658824"/><path d="M-189 508.5C-189.828 508.5-190.5 507.828-190.5 507L-190.5 501C-190.5 500.172-189.828 499.5-189 499.5L-151 499.5C-150.172 499.5-149.5 500.172-149.5 501L-149.5 507C-149.5 507.828-150.172 508.5-151 508.5Z" fill="#C66600" fill-rule="evenodd"/><path d="M-189.033 508.667-190.19 508.19-190.667 507.033-190.667 500.967-190.19 499.81-189.033 499.333-150.967 499.333-149.81 499.81-149.333 500.967-149.333 507.033-149.81 508.19-150.967 508.667ZM-151.007 508.467-149.963 508.037-149.533 506.993-149.533 501.007-149.963 499.963-151.007 499.533-188.993 499.533-190.037 499.963-190.467 501.007-190.467 506.993-190.037 508.037-188.993 508.467ZM-188.98 508.4-189.986 507.986-190.4 506.98-190.4 501.02-189.986 500.014-188.98 499.6-151.02 499.6-150.014 500.014-149.6 501.02-149.6 506.98-150.014 507.986-151.02 508.4ZM-151.033 508.333-150.065 507.935-149.667 506.967-149.667 501.033-150.065 500.065-151.033 499.667-188.967 499.667-189.935 500.065-190.333 501.033-190.333 506.967-189.935 507.935-188.967 508.333Z" fill="#000000" fill-opacity="0.658824"/><path d="M-118.189 474.504C-145.225 474.504-167.143 488.352-167.143 505.435-167.143 522.517-145.225 536.365-118.189 536.365-91.1525 536.365-69.2351 522.517-69.2351 505.435-69.2351 488.352-91.1525 474.504-118.189 474.504ZM-119 463.5C-87.796 463.5-62.5 482.304-62.5 505.5-62.5 528.696-87.796 547.5-119 547.5-150.204 547.5-175.5 528.696-175.5 505.5-175.5 482.304-150.204 463.5-119 463.5Z" fill="#C66600" fill-rule="evenodd"/><path d="M-118.188 474.73-128.041 475.353-137.207 477.161-145.496 479.966-152.66 483.766-158.639 488.313-161.061 490.796-163.112 493.531-164.788 496.325-165.966 499.239-166.71 502.277-166.958 505.438-166.71 508.599-165.966 511.636-164.788 514.551-163.112 517.407-161.061 520.079-158.638 522.626-152.722 527.172-145.497 530.971-137.207 533.776-128.041 535.584-118.188 536.208-108.334 535.584-99.1681 533.776-90.8785 530.971-83.6524 527.172-77.6741 522.625-75.2519 520.079-73.201 517.407-71.525 514.551-70.3466 511.636-69.6026 508.599-69.3547 505.438-69.6026 502.277-70.3466 499.239-71.5247 496.325-73.201 493.531-75.2519 490.796-77.6733 488.313-83.6524 483.766-90.8785 479.966-99.1681 477.161-108.334 475.353ZM-108.308 475.154-99.1164 476.968-90.7994 479.782-83.5446 483.597-77.5404 488.163-75.0997 490.666-73.0349 493.419-71.3451 496.235-70.1557 499.177-69.4045 502.245-69.1541 505.438-69.4045 508.63-70.1557 511.698-71.3451 514.64-73.0348 517.519-75.0997 520.209-77.5402 522.775-83.5446 527.341-90.7994 531.156-99.1164 533.97-108.308 535.783-118.188 536.408-128.067 535.783-137.259 533.97-145.576 531.156-152.831 527.341-158.772 522.775-161.213 520.209-163.278 517.519-164.968 514.64-166.157 511.698-166.908 508.63-167.158 505.438-166.908 502.245-166.157 499.177-164.967 496.235-163.278 493.419-161.213 490.666-158.772 488.163-152.768 483.597-145.576 479.782-137.259 476.968-128.067 475.154-118.188 474.529ZM-118.188 474.462-128.075 475.088-137.276 476.903-145.602 479.72-152.804 483.541-158.816 488.112-161.264 490.622-163.333 493.382-165.027 496.205-166.22 499.157-166.974 502.234-167.225 505.438-166.974 508.641-166.22 511.718-165.028 514.669-163.333 517.556-161.264 520.253-158.817 522.825-152.867 527.397-145.602 531.217-137.276 534.034-128.075 535.849-118.188 536.475-108.3 535.849-99.0992 534.034-90.773 531.217-83.5086 527.397-77.4956 522.825-75.0489 520.253-72.9794 517.556-71.2851 514.669-70.0921 511.718-69.3385 508.641-69.0872 505.438-69.3385 502.234-70.0921 499.157-71.2853 496.205-72.9795 493.382-75.0489 490.622-77.4961 488.112-83.5086 483.54-90.773 479.72-99.0992 476.903-108.3 475.088ZM-108.291 475.022-99.082 476.839-90.7466 479.659-83.4727 483.484-77.4518 488.062-74.9982 490.579-72.9241 493.344-71.2254 496.176-70.0285 499.136-69.2725 502.224-69.0204 505.438-69.2725 508.652-70.0285 511.739-71.2251 514.699-72.924 517.593-74.9982 520.296-77.451 522.875-83.4727 527.454-90.7466 531.279-99.082 534.099-108.291 535.916-118.188 536.542-128.084 535.916-137.293 534.099-145.628 531.279-152.903 527.453-158.862 522.874-161.314 520.296-163.389 517.593-165.087 514.699-166.284 511.739-167.04 508.652-167.292 505.438-167.04 502.224-166.284 499.136-165.087 496.176-163.389 493.344-161.314 490.579-158.861 488.062-152.84 483.484-145.629 479.659-137.293 476.839-128.084 475.022-118.188 474.396ZM-119 463.333-113.175 463.521-107.6 464.21-102.15 465.212-96.9465 466.654-87.2999 470.538-78.9029 475.677-75.2634 478.689-72.0013 481.888-69.1776 485.402-66.7922 489.043-64.9085 492.936-63.4639 497.018-62.6471 501.165-62.3329 505.5-62.647 509.835-63.4639 514.044-64.9087 518.065-66.7919 521.957-69.1776 525.661-72.0013 529.112-75.2627 532.373-78.9033 535.386-87.3003 540.462-96.9465 544.346-102.15 545.788-107.6 546.79-113.175 547.479-119 547.667-124.763 547.479-130.4 546.79-135.85 545.788-141.054 544.346-150.637 540.462-159.034 535.386-162.674 532.374-165.998 529.113-168.823 525.661-171.208 521.957-173.091 518.065-174.536 514.044-175.353 509.835-175.667 505.5-175.353 501.165-174.536 497.018-173.092 492.936-171.208 489.043-168.823 485.402-165.998 481.887-162.674 478.688-159.035 475.677-150.638 470.538-141.054 466.655-135.85 465.212-130.4 464.21-124.763 463.521ZM-124.747 463.721-130.37 464.408-135.805 465.408-140.989 466.844-150.547 470.717-158.918 475.84-162.54 478.837-165.85 482.023-168.661 485.52-171.033 489.142-172.907 493.013-174.343 497.071-175.154 501.192-175.467 505.5-175.154 509.808-174.343 513.991-172.907 517.987-171.033 521.859-168.661 525.543-165.85 528.978-162.54 532.225-158.918 535.223-150.548 540.283-140.989 544.156-135.805 545.593-130.37 546.592-124.747 547.279-119 547.467-113.19 547.279-107.63 546.592-102.195 545.593-97.0108 544.156-87.39 540.283-79.0194 535.223-75.3975 532.225-72.1498 528.978-69.3396 525.543-66.9667 521.859-65.0933 517.987-63.6573 513.991-62.8456 509.808-62.5335 505.5-62.8456 501.192-63.6573 497.071-65.0934 493.013-66.9666 489.142-69.3395 485.52-72.1498 482.022-75.3974 478.837-79.0195 475.84-87.3901 470.717-97.0108 466.844-102.195 465.408-107.63 464.408-113.19 463.721-119 463.533ZM-119 463.6-113.195 463.787-107.64 464.474-102.21 465.473-97.0322 466.907-87.4201 470.777-79.0583 475.894-75.4421 478.887-72.1993 482.067-69.3935 485.559-67.0247 489.174-65.155 493.039-63.7218 497.089-62.9118 501.201-62.6003 505.5-62.9119 509.799-63.7218 513.973-65.1549 517.961-67.0249 521.826-69.3935 525.504-72.1993 528.933-75.4424 532.176-79.0581 535.168-87.4199 540.223-97.0322 544.093-102.21 545.528-107.64 546.526-113.195 547.213-119 547.4-124.742 547.213-130.36 546.526-135.79 545.528-140.968 544.093-150.518 540.223-158.879 535.168-162.496 532.176-165.801 528.932-168.607 525.504-170.975 521.826-172.845 517.961-174.278 513.973-175.088 509.799-175.4 505.5-175.088 501.201-174.278 497.089-172.845 493.039-170.975 489.174-168.607 485.559-165.801 482.068-162.496 478.887-158.879 475.894-150.517 470.777-140.968 466.907-135.79 465.473-130.36 464.474-124.742 463.787ZM-124.737 463.854-130.35 464.54-135.775 465.538-140.946 466.971-150.487 470.837-158.84 475.949-162.451 478.937-165.752 482.113-168.553 485.598-170.917 489.207-172.784 493.064-174.214 497.107-175.022 501.21-175.333 505.5-175.022 509.791-174.214 513.956-172.784 517.935-170.917 521.793-168.553 525.464-165.752 528.887-162.451 532.126-158.841 535.114-150.488 540.163-140.946 544.029-135.775 545.462-130.35 546.46-124.737 547.146-119 547.333-113.2 547.146-107.65 546.46-102.225 545.462-97.0536 544.029-87.4498 540.163-79.0968 535.114-75.4874 532.127-72.2488 528.888-69.4475 525.464-67.0832 521.793-65.2164 517.935-63.7862 513.956-62.9781 509.791-62.6672 505.5-62.9781 501.21-63.7862 497.107-65.2166 493.064-67.0829 489.207-69.4475 485.598-72.2488 482.112-75.4867 478.936-79.0972 475.949-87.4502 470.837-97.0536 466.971-102.225 465.538-107.65 464.54-113.2 463.854-119 463.667Z" fill="#000000" fill-opacity="0.658824"/><path d="M-116.714 402.441C-128.548 402.441-138.14 413.101-138.14 426.251-138.14 439.401-128.548 450.061-116.714 450.061-104.881 450.061-95.2881 439.401-95.2881 426.251-95.2881 413.101-104.881 402.441-116.714 402.441ZM-118 377.5C-92.871 377.5-72.5 398.266-72.5 423.882-72.5 433.488-75.3647 442.412-80.2707 449.814L-82.8939 453.055-117.81 511.5-151.654 454.849-155.729 449.814C-160.635 442.412-163.5 433.488-163.5 423.882-163.5 398.266-143.129 377.5-118 377.5Z" fill="#C66600" fill-rule="evenodd"/><path d="M-116.688 402.668-120.963 403.164-124.93 404.527-128.588 406.697-131.688 409.55-134.295 413.025-136.281 417.06-137.523 421.468-137.958 426.25-137.523 431.032-136.281 435.502-134.295 439.475-131.688 443.013-128.588 445.866-124.93 448.035-120.963 449.399-116.688 449.895-112.412 449.399-108.445 448.035-104.788 445.866-101.687 443.013-99.0802 439.475-97.0938 435.502-95.8522 431.032-95.4174 426.25-95.8521 421.468-97.0938 417.06-99.0802 413.025-101.687 409.55-104.788 406.697-108.445 404.527-112.412 403.164ZM-112.368 402.967-108.361 404.345-104.668 406.536-101.538 409.415-98.909 412.92-96.9063 416.988-95.6546 421.431-95.2166 426.25-95.6546 431.069-96.9063 435.575-98.909 439.58-101.538 443.147-104.668 446.027-108.361 448.218-112.368 449.595-116.688 450.096-121.007 449.595-125.014 448.218-128.708 446.027-131.837 443.147-134.466 439.58-136.469 435.575-137.72 431.069-138.159 426.25-137.72 421.431-136.469 416.988-134.466 412.92-131.837 409.415-128.708 406.536-125.014 404.345-121.007 402.967-116.688 402.466ZM-116.688 402.399-121.022 402.902-125.042 404.284-128.748 406.482-131.887 409.37-134.523 412.885-136.531 416.964-137.786 421.419-138.225 426.25-137.786 431.081-136.531 435.599-134.523 439.615-131.887 443.192-128.748 446.081-125.042 448.279-121.022 449.661-116.688 450.163-112.353 449.661-108.333 448.279-104.628 446.081-101.488 443.192-98.8519 439.615-96.8438 435.599-95.5888 431.081-95.1496 426.25-95.5888 421.419-96.8438 416.964-98.852 412.885-101.488 409.37-104.628 406.482-108.333 404.284-112.353 402.902ZM-112.338 402.837-108.305 404.223-104.588 406.428-101.438 409.325-98.7949 412.85-96.7813 416.94-95.523 421.407-95.0827 426.25-95.5229 431.093-96.7813 435.623-98.7949 439.65-101.438 443.237-104.588 446.135-108.305 448.34-112.338 449.726-116.688 450.23-121.037 449.726-125.07 448.34-128.788 446.135-131.937 443.237-134.58 439.65-136.594 435.623-137.852 431.093-138.292 426.25-137.852 421.407-136.594 416.94-134.58 412.85-131.937 409.325-128.788 406.428-125.07 404.223-121.037 402.837-116.688 402.332ZM-118 377.333-113.295 377.584-108.779 378.274-104.388 379.403-100.183 380.972-96.2309 382.98-92.4646 385.302-85.693 391.008-80.1128 397.905-77.8528 401.734-75.9083 405.811-74.4029 410.077-73.2739 414.53-72.584 419.171-72.3331 423.939-72.8347 431.024-74.3401 437.736-76.7866 444.072-80.1119 449.907-82.738 453.158-117.75 511.825-151.762 454.97-155.826 449.907-159.151 444.072-161.597 437.737-163.165 431.025-163.667 423.939-163.416 419.171-162.726 414.53-161.597 410.077-160.092 405.811-158.147 401.734-155.887 397.905-150.307 391.008-143.536 385.302-139.769 382.979-135.754 380.972-131.55 379.403-127.221 378.274-122.642 377.584ZM-122.622 377.783-127.181 378.47-131.49 379.594-135.674 381.156-139.671 383.154-143.418 385.465-150.164 391.148-155.723 398.019-157.971 401.828-159.907 405.888-161.406 410.135-162.53 414.569-163.217 419.191-163.467 423.937-162.967 430.995-161.406 437.678-158.97 443.986-155.66 449.794-151.598 454.856-117.75 511.435-82.9025 453.043-80.2777 449.794-76.9677 443.986-74.532 437.678-73.0331 430.995-72.5334 423.937-72.7832 419.191-73.4703 414.569-74.5945 410.135-76.0934 405.888-78.0295 401.828-80.2775 398.019-85.8365 391.148-92.5821 385.465-96.3289 383.154-100.263 381.156-104.448 379.594-108.819 378.47-113.316 377.783-118 377.533ZM-118 377.6-113.323 377.85-108.833 378.536-104.468 379.658-100.29 381.217-96.3615 383.212-92.6213 385.519-85.8843 391.195-80.3324 398.057-78.0884 401.86-76.1551 405.913-74.6584 410.154-73.5357 414.582-72.8497 419.198-72.6002 423.937-73.0993 430.986-74.596 437.658-77.0281 443.957-80.3329 449.756-82.9573 453.005-117.75 511.305-151.543 454.818-155.605 449.756-158.909 443.957-161.342 437.658-162.901 430.985-163.4 423.937-163.15 419.198-162.464 414.582-161.342 410.154-159.845 405.913-157.912 401.86-155.668 398.057-150.116 391.195-143.379 385.519-139.639 383.213-135.648 381.217-131.47 379.658-127.167 378.536-122.615 377.85ZM-122.608 377.916-127.154 378.601-131.45 379.722-135.621 381.278-139.606 383.271-143.34 385.573-150.068 391.242-155.613 398.095-157.853 401.891-159.783 405.939-161.278 410.173-162.399 414.595-163.084 419.204-163.333 423.936-162.835 430.975-161.278 437.638-158.849 443.928-155.549 449.719-151.488 454.78-117.75 511.175-83.0121 452.967-80.3882 449.718-77.0885 443.928-74.66 437.639-73.1654 430.976-72.667 423.936-72.9161 419.204-73.6012 414.595-74.7222 410.173-76.2168 405.939-78.1473 401.891-80.3873 398.095-85.9321 391.242-92.6605 385.573-96.3942 383.271-100.317 381.278-104.488 379.722-108.846 378.601-113.33 377.916-118 377.667Z" fill="#000000" fill-opacity="0.658824"/></g></svg>